Patient4_TMGait_0pt7_02_right_24_EMG.mot
version=1
nRows=36
nColumns=33
inDegrees=no
endheader
time	1LAddLong	2LGlutMax	3LGlutMed	4LIliopsoas	5LSemiMemb	6LBicFemLong	7LRecFem	8LVastMed	9LVastLat	10LGasMed	11LTibAnt	12lTibPost	13LPeroneusLong	14LSol	15LExtDigLong	16LFlexDigLong	17RAddLong	18RGlutMax	19RGlutMed	20RIliopsoas	21RSemiMemb	22RBicFemLong	23RRecFem	24RVastMed	25RVastLat	26RGasMed	27RTibAnt	28RTibPost	29RPeroneusLong	30RSol	31RExtDigLong	32RFlexDigLong
26.73	-0.009918	-0.16434	0.089874	0.013275	-0.013428	-0.35812	-0.052643	-0.010376	0.19119	-0.32242	-0.023041	-0.013733	-0.23361	-0.063477	-0.088348	-0.01358	-0.008087	-0.093994	0.62286	-0.11185	0.13733	0.063934	0.15854	-0.013275	-0.018463	-0.008698	-0.11963	-0.002594	-0.023193	-0.005493	-0.010376	-0.017395
26.731	0.005798	-0.2066	0.024567	0.012512	-0.032654	-0.16998	-0.025787	-0.007629	0.18997	-0.37293	-0.033722	-0.014801	0.1767	-0.098114	-0.021057	-0.014343	-0.041809	-0.1683	1.2695	-0.17777	0.13153	0.047455	0.19196	-0.072784	-0.034332	-0.002899	-0.16586	-0.000763	0.29999	-0.034943	-0.00351	-0.015259
26.732	0.006104	-0.26642	-0.10178	-0.003052	-0.028534	-0.27847	-0.028992	-0.016174	0.14145	-0.12802	-0.039215	-0.00885	0.21378	0.055695	0.02594	-0.001068	-0.06134	-0.095215	1.5074	-0.11429	0.11368	0.076141	0.1976	-0.11673	-0.030365	-0.001221	-0.012512	-0.00473	0.19974	-0.068665	-0.005341	-0.024719
26.733	0.014648	-0.31006	-0.10788	-0.007782	0.0383	-0.53406	-0.028839	-0.00946	0.03418	0.04364	-0.03006	-0.000153	-0.036469	-0.065613	-0.036163	0.002594	-0.086975	-0.10544	0.94376	0.034332	0.10696	0.043793	0.18112	-0.098877	-0.046844	-0.007782	0.22415	-0.001373	-0.014343	-0.08667	-0.001984	-0.029602
26.734	0.012665	-0.31326	0.023956	0.024567	0.046692	-0.52231	-0.014038	-0.010834	0.005646	0.060272	-0.00412	0.005646	-0.19196	-0.10605	-0.002747	-0.014343	-0.076599	-0.14481	0.5571	0.035706	0.1004	0.043335	0.22385	-0.11017	-0.058136	-0.003815	0.45242	-0.001678	0.02655	-0.10056	-0.001984	-0.023651
26.735	-0.001526	-0.34317	-0.008698	0.006256	0.011292	-0.044556	-0.036469	-0.001373	-0.011597	0.000305	0.02655	0.010681	-0.005798	-0.061951	0.021515	-0.024261	-0.041351	-0.12497	0.41092	0.002594	0.10056	0.056458	0.25894	-0.099487	-0.052338	0.005951	0.53497	-0.001068	0.30456	-0.19058	-0.003662	-0.022278
26.736	-0.013275	-0.42816	-0.00061	-0.019989	-0.013885	0.13123	-0.007019	0.009003	-0.0177	-0.037994	0.040131	0.016479	0.001984	-0.048065	0.005798	-0.027618	0.028839	-0.14175	0.6781	-0.065308	0.094604	0.048981	0.30182	-0.090942	-0.036163	0.004578	0.64774	-0.00473	0.4866	-0.15488	-0.002594	-0.019684
26.737	-0.004272	-0.41321	0.023499	-0.00885	-0.028229	0.23331	-0.009308	0.003815	-0.025482	-0.049591	0.034637	0.013733	-0.003357	0.1857	0.021973	-0.029449	0.005493	-0.16403	1.2834	-0.070038	0.13626	0.025787	0.34698	-0.09964	-0.004425	-0.006409	0.34943	-0.00946	-0.22522	-0.11459	-0.002441	-0.018921
26.738	0.012054	-0.36392	-0.073395	0.005798	0.00061	0.18158	-0.025024	0.000153	-0.032654	0.069885	0.04837	-0.012054	0.17853	0.26474	0.025635	-0.025482	-0.03479	-0.20325	1.4325	-0.037231	0.15152	0.022583	0.2861	-0.078278	0.006256	-0.005493	0.49271	-0.007019	-0.68603	-0.018463	-0.005493	-0.018311
26.739	0.017853	-0.40497	-0.086517	0.006409	-0.030365	0.089111	0.020294	0.001678	-0.037842	0.23468	0.036316	-0.015411	0.095825	0.16129	-0.060272	-0.030365	-0.050049	-0.25482	0.92255	-0.016937	0.053253	0.012054	0.20691	-0.069122	-0.024414	-0.003357	0.56534	-0.009308	-0.46051	0.12711	-0.003662	-0.01709
26.74	0.012512	-0.41657	0.088654	-0.00946	-0.033722	-0.26489	0.035706	0.00412	-0.042114	0.13947	0.011902	-0.009308	-0.59357	0.06546	-0.061035	-0.019836	-0.06073	-0.23926	0.49866	0.045166	-0.009918	0.032349	0.16007	-0.1091	-0.016479	0.001984	0.33264	-0.013428	-0.17197	0.24246	-0.001984	-0.015717
26.741	0.016632	-0.42099	0.063324	0.003662	0.070801	-0.4068	0.000153	0.00351	-0.094757	0.15076	0.027771	-0.015411	-0.005341	0.16922	0.054321	0.011902	-0.042725	-0.1564	0.65582	0.035095	0.019989	0.023346	0.11246	-0.085907	-0.01709	0.004883	0.42023	-0.00885	0.20035	0.16266	-0.003662	-0.018158
26.742	0.012817	-0.37567	-0.003357	0.022888	0.074158	-0.15167	-0.027161	0.001984	-0.085602	0.2887	0.009155	0.006409	0.58227	0.23758	0.14145	0.018616	-0.008545	-0.11383	0.88837	0.011902	0.04837	0.030975	0.023499	-0.10239	-0.021973	0.00824	0.21988	-0.005035	0.23071	0.09552	-0.000458	-0.020447
26.743	0.022736	-0.34759	0.021667	0.027771	0.009613	0.12878	0.000458	0.007324	-0.003967	0.34271	0.014343	0.023346	-0.33508	-0.030212	0.14755	0.014954	0.00473	-0.16998	0.84686	0.026398	0.051575	-0.002136	-0.052795	-0.068054	-0.037994	0.010071	-0.20416	-0.00946	0.046082	0.057373	-0.002289	-0.01358
26.744	0.019073	-0.33066	0.054932	0.02533	0.007019	0.3183	0.13626	0.006866	0.067902	-0.009003	-0.011749	-0.03952	-0.55969	-0.39246	0.034943	0.011902	0.020599	-0.17792	1.0881	-0.023193	0.048065	0.011902	-0.14114	-0.056	-0.028229	0.013123	-0.20874	-0.005188	0	0.056458	-0.010376	-0.013733
26.745	0.028992	-0.36575	0.066833	0.044098	0.06073	0.62546	0.14526	0.003815	0.065308	0.13504	0.009766	0.28931	-0.46066	-0.41641	0.031281	-0.009766	0.023804	-0.18249	0.85266	-0.067596	0.05127	0.026855	-0.19104	-0.059204	-0.031586	0.002441	-0.031281	-0.009613	-0.057068	0.008392	-0.001373	-0.017242
26.746	0.025635	-0.39749	0.017242	0.040741	0.071106	0.56427	-0.001526	0.029602	-0.014648	0.55695	-0.004883	-0.043945	-0.0177	-0.50522	-0.00061	-0.019073	0.021362	-0.18494	0.67947	-0.10422	0.038605	0.010986	-0.1181	-0.08667	-0.054169	-0.00061	0.072784	-0.008545	-0.024109	-0.027313	-0.001221	-0.015869
26.747	0.018005	-0.36606	0.017853	0.032501	0.04364	0.45242	-0.058746	0.02533	0.031891	0.28107	-0.007172	-0.23895	0.23773	-0.50491	0.087433	-0.011292	0.015717	-0.15808	0.52933	-0.096741	0.052185	0.010223	0.001984	-0.080109	-0.037537	-0.005798	0.25146	-0.012512	0.20203	-0.048676	-0.003052	-0.01236
26.748	0.026398	-0.31967	-0.047607	0.01236	0.024109	0.18723	-0.028534	0.024109	0.14893	-0.23544	0.017242	-0.012817	0.15213	-0.63644	0.070648	0.012054	0.047455	-0.14358	0.61569	0.003052	0.052185	0.028229	0.008392	-0.05661	-0.044403	-0.003204	0.28473	-0.003967	0.11398	-0.013885	-0.003052	-0.019073
26.749	0.020294	-0.32196	-0.078888	-0.014648	-0.00061	-0.36087	-0.061035	0.010529	0.079346	-0.059967	-0.003967	0.16586	0.34759	-0.48279	0.005341	0.004272	0.059509	-0.15762	0.56397	0.17792	0.034637	0.038605	0.037537	-0.059509	-0.020294	0.002594	-0.16876	-0.010529	0.020752	-0.048523	-0.000458	-0.006104
26.75	0.005035	-0.27405	-0.01358	-0.001373	-0.013733	-0.59006	-0.007782	0.00885	0.028839	0.031586	-0.016327	-0.083313	0.4631	-0.2771	-0.070953	-0.004272	0.071259	-0.19623	0.5574	0.26443	-0.011292	0.051575	0.031281	-0.046387	-0.039063	-0.002289	0.10681	-0.00351	-0.16068	-0.038757	-0.000305	-0.028229
26.751	0.009308	-0.24658	0.039673	0.003662	-0.00885	-0.70999	-0.00946	-0.006866	0.041656	-0.08728	-0.020447	0.068359	0.45136	0.066223	-0.092621	-0.009918	0.056	-0.14374	0.55618	0.15686	0.006561	0.060577	0.030823	-0.10529	-0.037537	-0.006866	0.30548	-0.006256	-0.27969	-0.053253	0.005493	-0.019684
26.752	0.019836	-0.22385	-0.006561	0.009155	0.014496	-0.327	-0.015869	0.04425	0.075684	-0.13031	-0.015106	0.020294	0.025635	0.14801	-0.032959	-0.004272	0.053253	-0.13046	0.56869	0.097961	0.00412	0.029449	0.018921	-0.083313	-0.040283	-0.004272	0.3894	-0.006714	-0.31342	-0.05722	-0.002899	-0.016022
26.753	0.012665	-0.21729	0.097198	0.019836	0.007477	0.040283	-0.026093	-0.010376	0.06073	-0.29098	0.023651	-0.014496	-0.33875	0.21439	-0.046082	-0.000916	0.052185	-0.13123	0.68924	0.076447	0.001678	0.051575	-0.001831	-0.094757	-0.027161	-0.005188	0.32425	-0.008698	-0.34271	-0.052948	-0.003662	-0.012817
26.754	0.011749	-0.26459	0.12512	0.016937	-0.014801	0.40298	-0.029144	0.009613	0.024414	-0.054321	0.006866	-0.002136	0.32471	0.54199	-0.10086	0.002136	0.02594	-0.15839	0.578	0.14114	-0.059509	0.041199	-0.066986	-0.092926	-0.0383	0.003967	-0.38361	-0.009918	-0.021057	-0.11307	-0.000153	-0.011139
26.755	0.017853	-0.23483	0.15442	0.007935	0.042877	0.495	-0.02121	0.010529	0.027161	0.1062	-0.033875	-0.036774	0.005951	0.7077	-0.003815	0.006714	0.036163	-0.11108	0.40634	0.19058	-0.085907	-0.000153	-0.046234	-0.080261	-0.036011	0.017853	-1.1923	-0.005188	0.58945	-0.13062	-0.001831	-0.00061
26.756	0.015106	-0.2121	-0.014801	-0.021667	0.053406	0.74081	-0.051575	-0.008545	0.027466	0.015106	-0.004883	-0.023499	-0.53925	0.39429	0.094604	-0.001221	0.025024	-0.090485	0.31143	0.13077	-0.067444	-0.05722	-0.035553	-0.086365	-0.020447	0.015411	-0.94574	-0.010223	0.56259	-0.068054	-0.004272	-0.004578
26.757	0.016479	-0.15396	-0.025635	-0.015564	0.019836	0.45136	-0.031891	-0.023499	0.061493	-0.067749	0.024414	-0.010834	-0.39032	0.14984	-0.03952	0.001678	0.007629	-0.071411	0.44037	0.009308	0.055542	-0.040588	-0.027771	-0.10696	-0.03067	0.006714	-0.4039	-0.00885	0.05188	0.016174	-0.005035	-0.002747
26.758	0.008392	-0.20721	0.079651	-0.02594	0.012054	0.41519	-0.03418	-0.016327	0.034637	-0.10086	0.002747	-0.024567	0.58929	-0.018921	-0.070343	-0.001831	-0.02655	-0.095978	0.56442	-0.048065	0.16525	-0.002594	-0.021973	-0.059662	-0.015564	0.009155	-0.233	-0.007019	-0.21866	0.018311	-0.004578	0.001221
26.759	0.003204	-0.17044	0.10574	-0.018311	0.029449	0.11139	-0.031738	-0.005951	-0.009918	-0.09201	-0.005035	-0.011902	1.4337	0.10208	0.046844	0.005188	-0.056763	-0.05722	0.37811	-0.010071	0.1297	0.075378	0.020599	-0.026703	-0.009308	-0.00061	-0.15289	-0.007935	-0.3923	0.027161	-0.001068	0.006104
26.76	0.009308	-0.14084	0.12878	-0.013275	0.028229	0.2771	-0.052032	-0.003815	0.00824	-0.11673	0.018311	-0.005798	0.049896	0.25909	0.018616	0.012817	-0.04364	-0.057526	0.40314	0.023193	0.1149	0.038147	-0.007019	0.01236	-0.008545	-0.006256	0.014038	-0.007324	-0.062714	0.019989	-0.00473	0.00412
26.761	0.01236	-0.15945	0.094604	0.014038	0.017548	-0.18036	-0.031891	-0.00473	0.008545	-0.11185	0.034332	-0.010071	-0.9317	0.29419	-0.10468	0.005798	-0.00351	-0.005188	0.53284	-0.076752	0.112	0.028381	0.012817	-0.025024	-0.002899	-0.001678	0.12772	0.001068	0.21439	-0.02533	-0.001831	0.006256
26.762	0.011292	-0.10941	0.061035	0.004425	0.033112	-0.4422	-0.035553	-0.002747	0.011902	-0.13001	-0.038147	-0.012207	0.33249	0.25681	-0.23499	0.005798	0.005035	0.03006	0.69504	-0.081329	0.063019	0.053711	0.071411	-0.042267	-0.022583	-0.00351	0.1358	-0.007782	-0.058136	-0.012665	-0.004578	0.006409
26.763	0.006866	-0.15167	0.10025	0.019226	0.023651	-0.34119	-0.04837	-0.00473	-0.001526	-0.097351	-0.002289	-0.018158	1.0066	0.21072	-0.2124	0.009613	-0.016174	-0.009003	0.18753	-0.032349	-0.02243	0.11261	0.034485	-0.007935	-0.015106	0.001526	-0.1239	-0.009308	-0.17746	-0.028687	-0.003357	-0.000916
26.764	0.012054	-0.17151	0.036316	0.020599	0.013733	-0.16998	-0.077362	-0.003204	0.03479	-0.019531	0.083771	-0.011139	-0.27344	0.1442	-0.01297	-0.001068	-0.027466	-0.000458	-0.3978	0.025482	0.019379	0.096588	0.061493	-0.019684	0.003662	-0.00061	-0.094452	-0.005646	0.25085	-0.035248	-0.002136	0.004425
26.765	0.019684	-0.16129	-0.10925	0.019531	0.005341	0.019989	0.024719	0.00885	0.062866	0.059662	0.14267	-0.011139	-1.2064	-0.031281	-0.065613	-0.016479	-0.02594	0.040131	-0.24185	0.10651	0.026093	0.064545	0.06012	-0.059204	-0.006256	-0.007324	-0.012512	-0.005188	0.242	-0.069427	-0.002136	0.005341
